<svg xmlns="http://www.w3.org/2000/svg" xmlns:xlink="http://www.w3.org/1999/xlink" width="454.993" height="326.321" viewBox="0 0 454.993 326.321">
  <defs>
    <filter id="Path_23" x="313.775" y="0" width="141.218" height="141.218" filterUnits="userSpaceOnUse">
      <feOffset dy="3" input="SourceAlpha"/>
      <feGaussianBlur stdDeviation="3" result="blur"/>
      <feFlood flood-opacity="0.161"/>
      <feComposite operator="in" in2="blur"/>
      <feComposite in="SourceGraphic"/>
    </filter>
    <filter id="Path_24" x="167.227" y="48.483" width="206.302" height="212.031" filterUnits="userSpaceOnUse">
      <feOffset dy="3" input="SourceAlpha"/>
      <feGaussianBlur stdDeviation="3" result="blur-2"/>
      <feFlood flood-opacity="0.161"/>
      <feComposite operator="in" in2="blur-2"/>
      <feComposite in="SourceGraphic"/>
    </filter>
    <filter id="Path_43" x="0" y="179.651" width="214.622" height="146.67" filterUnits="userSpaceOnUse">
      <feOffset dy="3" input="SourceAlpha"/>
      <feGaussianBlur stdDeviation="3" result="blur-3"/>
      <feFlood flood-opacity="0.161"/>
      <feComposite operator="in" in2="blur-3"/>
      <feComposite in="SourceGraphic"/>
    </filter>
  </defs>
  <g id="Group_28" data-name="Group 28" transform="translate(-602.225 -588.517)">
    <g id="Group_26" data-name="Group 26">
      <g id="Group_24" data-name="Group 24">
        <g transform="matrix(1, 0, 0, 1, 602.23, 588.52)" filter="url(#Path_23)">
          <path id="Path_23-2" data-name="Path 23" d="M854.621,219.2a61.6,61.6,0,0,0-49.078,98.842l-7.154,24.376h55.447l-.041-.021c.276,0,.549.021.825.021a61.609,61.609,0,1,0,0-123.218Z" transform="translate(-470.24 -213.2)" fill="#fff"/>
        </g>
        <g transform="matrix(1, 0, 0, 1, 602.23, 588.52)" filter="url(#Path_24)">
          <path id="Path_24-2" data-name="Path 24" d="M491.873,502.289c8.629-.608,12.7-11.04,5.528-24.59-.931-1.756-1.843-3.527-2.7-5.32-7.914-16.516-1.645-26,16.755-25.2a29.717,29.717,0,0,1,22.243,11.06,125.4,125.4,0,0,1,10.7,15.34c14.792,24.464,38.553,35.745,66.534,31.174,3.028-.5,6.8-1.054,8.649-3.047,2.535-2.726,5.06-6.944,4.86-10.362-.266-4.542-3.515-8.116-9.456-7.283-24.364,3.406-41.31-8.571-55.117-26.917a187.75,187.75,0,0,1-32.512-66.969c-4.164-16.291-1.725-31.411,8.844-44.189a171.842,171.842,0,0,1,26.257-25.21c3.326-2.614,10.4-2.865,14.744-1.324,12.831,4.551,22.473,21.156,21.67,34.669-.41,6.86-2.767,11.954-10.259,13.595-3.57.78-6.976,2.371-10.4,3.732-13.747,5.461-14.409,6.6-11.3,20.785,4.193,19.147,12.025,36,29.2,47.247,5.6,3.665,10.121,4.309,14.669-1.415,2.639-3.32,6.355-5.841,8.73-9.308,4.974-7.26,11.527-7.133,17.852-3.506,11.993,6.878,19.509,17.231,20.307,31.5.448,8.043-2.314,14.471-10.321,17.775-6.257,2.58-12.471,5.265-18.705,7.9,4.8,19.483.3,26.837-20.236,29.483-28.912,3.722-50.275-9.763-67.356-31.8-5.377-6.937-10.53-14.13-16.587-20.437-5.772-6.014-13.367-7.063-21.324-4.325-5.989,2.061-8.2,5.813-5.185,11.818,2.673,5.326,5.61,11.055,7.071,16.719,2.184,14.725.939,25.161-19.06,24.417a95.457,95.457,0,0,1-16.182-2.345c-1.9.471,4.195-3.827,2.074-4.254A139.71,139.71,0,0,0,491.873,502.289Z" transform="translate(-293.18 -264.02)" fill="#e65a45"/>
        </g>
        <path id="Path_25" data-name="Path 25" d="M538.158,339.05c.144-.854-20.559,5.308-20.8,13.29s4.716,64.4,48.054,74.511c0,0,8.089-.216,11.467-5.455s5.974-17,2.046-15.5-8.1,10.809-13.513,10.868-39.1-24.551-35.919-64.424c0,0,7.8-6.068,13-7.223C542.493,345.118,537.87,340.783,538.158,339.05Z" transform="translate(347.645 350.037)" fill="#ad4434"/>
        <path id="Path_28" data-name="Path 28" d="M520.385,323.349c-1.784,2.87-12.486,28,20.086,47.815.466.282.938.563,1.422.842,0,0,15.88-4.674,17.418-7.591s5.84-7.784,0-25.106-22.427-21.993-27.173-21.41S522.169,320.479,520.385,323.349Z" transform="translate(346.967 324.148)" fill="#764139"/>
        <path id="Path_29" data-name="Path 29" d="M544.72,375.982c-1.064,5.4-2.421,33.725,28.09,42.038,0,0,10.273-2.036,13.1-9.556s3.173-13.753-1.7-25.476-17.064-19.852-25.134-18.88S545.784,370.577,544.72,375.982Z" transform="translate(379.788 382.842)" fill="#764139"/>
        <path id="Path_26" data-name="Path 26" d="M531.622,319.872s-11.4-.736-6.557,15.465,16.851,19.246,20.063,17.5,3.285-5.373,1.738-13.064c-1.557-4.65-2.758-8.079-4.156-10.464C539.882,324.481,536.156,320.41,531.622,319.872Z" transform="translate(354.755 330.178)" fill="#ad4434"/>
        <path id="Path_27" data-name="Path 27" d="M565.2,371.956c-1.338-1.58-6.27-8.8-13.235-4.366s-.435,17.255,2.351,22.431,12.352,12.876,16.828,9.842,2.259-9.9,0-16.528S566.542,373.536,565.2,371.956Z" transform="translate(385.611 387.869)" fill="#ad4434"/>
        <g transform="matrix(1, 0, 0, 1, 602.23, 588.52)" filter="url(#Path_43)">
          <path id="Path_43-2" data-name="Path 43" d="M459.163,311.5c-7.266,2.039-14.238,7.678-21.779,6.188-10.436-2.06-22.381-9.535-31.029-18.061-10.29-9.272-17.006-23.134-45.317-17.285a91.148,91.148,0,0,0-14.394,6.959,17.328,17.328,0,0,1-1.668.867c-.569.279-1.127.539-1.656.758l-3.232,1.381q-3.236,1.367-6.489,2.665A250.337,250.337,0,0,1,307.243,304a119.989,119.989,0,0,1-13.514,2.935,59.9,59.9,0,0,1-13.854.713,26.934,26.934,0,0,1-7.066-1.482,15.439,15.439,0,0,1-6.739-4.635,14.8,14.8,0,0,1-2.411-4.331,19.821,19.821,0,0,1-1.055-5.106,30.213,30.213,0,0,1,.1-5.035,41.721,41.721,0,0,1,.807-4.711,64.013,64.013,0,0,1,2.69-8.638,28.486,28.486,0,0,1,4.319-7.871,16.7,16.7,0,0,1,13.682-6.453,30.28,30.28,0,0,1,13.776,4.058,59.538,59.538,0,0,1,12.149,8.877,79.576,79.576,0,0,1,10.475,11.93c3.175,4.435,14.11,14.323,16.357,19.749a66.926,66.926,0,0,1,9.68,32.458c.235,6.508-6.82,46.489-7.723,49.512s-4.946,2.518-4.215,0,7.463-46.777,7.423-49.512c-.087-5.491-5.338-23.914-7.423-28.9-2.1-5-13.46-16.129-16.495-20.309a75.284,75.284,0,0,0-10.025-11.264,55.979,55.979,0,0,0-11.51-8.286,27.431,27.431,0,0,0-12.488-3.6,14.477,14.477,0,0,0-6.063,1.226,13.757,13.757,0,0,0-5.086,4.033,12.663,12.663,0,0,0-1.03,1.433,13.667,13.667,0,0,0-.922,1.577,14.113,14.113,0,0,0-.814,1.7l-.384.874-.363.959a58.432,58.432,0,0,0-2.407,7.855,35.346,35.346,0,0,0-.675,3.981,23.751,23.751,0,0,0-.075,3.86,11.074,11.074,0,0,0,2.292,6.255,11.853,11.853,0,0,0,5.182,3.447,23.974,23.974,0,0,0,6.277,1.27,57.072,57.072,0,0,0,13.152-.758,129.318,129.318,0,0,0,13.178-2.9,246.543,246.543,0,0,0,26.035-8.814q3.227-1.273,6.437-2.617l3.208-1.358c.547-.225,1.052-.462,1.541-.7a14.843,14.843,0,0,0,1.479-.763c16.805-10.1,20.706-8.243,29.007-9.718,23.041,3.044,29.312,14.274,34.364,19.349A59.768,59.768,0,0,0,432.4,309.676a52.625,52.625,0,0,0,13.275,2.532c4.473.22,5.336,1.786,9.726.611Z" transform="translate(-253.54 -73.73)" fill="#e65a45"/>
        </g>
        <g id="Group_27" data-name="Group 27" transform="translate(777.253 519.669)" style="isolation: isolate">
          <path id="Path_50" data-name="Path 50" d="M196.447,128.011v14.12h-2.84v-6.14h-6.04v6.14h-2.82v-14.12h2.82v5.72h6.04v-5.72Z" fill="#e65a45"/>
          <path id="Path_51" data-name="Path 51" d="M207.037,131.591a4.976,4.976,0,0,1,2.029,1.97,6.545,6.545,0,0,1,0,6.05,5.066,5.066,0,0,1-2.029,1.97,6.481,6.481,0,0,1-5.82,0,5.056,5.056,0,0,1-2.03-1.97,6.553,6.553,0,0,1,0-6.05,4.967,4.967,0,0,1,2.03-1.97,6.566,6.566,0,0,1,5.82,0Zm-4.911,2.59a3.955,3.955,0,0,0,0,4.82,2.825,2.825,0,0,0,4,0,3.948,3.948,0,0,0,0-4.82,2.825,2.825,0,0,0-4,0Z" fill="#e65a45"/>
          <path id="Path_52" data-name="Path 52" d="M214.627,127.331v14.8h-2.82v-14.8Z" fill="#e65a45"/>
          <path id="Path_53" data-name="Path 53" d="M223.927,131.571a3.6,3.6,0,0,1,1.42,1.78v-2.3h2.8v11.08h-2.8v-2.32a3.651,3.651,0,0,1-1.42,1.79,4.21,4.21,0,0,1-2.4.67,4.759,4.759,0,0,1-2.52-.68,4.59,4.59,0,0,1-1.75-1.97,7.6,7.6,0,0,1,0-6.06,4.59,4.59,0,0,1,1.75-1.97,4.759,4.759,0,0,1,2.52-.68A4.26,4.26,0,0,1,223.927,131.571Zm-3.64,2.66a3.328,3.328,0,0,0-.8,2.36,3.29,3.29,0,0,0,.8,2.35,3.031,3.031,0,0,0,4.23-.02,3.714,3.714,0,0,0,0-4.68,2.792,2.792,0,0,0-2.11-.87A2.759,2.759,0,0,0,220.287,134.231Z" fill="#e65a45"/>
          <path id="Path_54" data-name="Path 54" d="M234.607,127.431l-.36,10h-2.38l-.36-10Zm-.02,11.76v2.94h-3.04v-2.94Z" fill="#e65a45"/>
        </g>
      </g>
    </g>
  </g>
</svg>
